<!DOCTYPE svg PUBLIC "-//W3C//DTD SVG 1.1//EN" "http://www.w3.org/Graphics/SVG/1.1/DTD/svg11.dtd">
<!-- Uploaded to: SVG Repo, www.svgrepo.com, Transformed by: SVG Repo Mixer Tools -->
<svg width="256px" height="256px" viewBox="-3.2 -3.2 38.40 38.40" version="1.1" xmlns="http://www.w3.org/2000/svg" xmlns:xlink="http://www.w3.org/1999/xlink" xmlns:sketch="http://www.bohemiancoding.com/sketch/ns" fill="#008d85" stroke="#008d85">
<g id="SVGRepo_bgCarrier" stroke-width="0">
<path transform="translate(-3.2, -3.2), scale(1.2)" d="M16,26.99292102960103C19.858531464417503,27.206700218594246,24.397239630326585,27.63854332039067,26.750316781019528,24.57309155491902C29.082309656744,21.53510715400309,27.565912417905373,17.25444951255762,26.2307482717119,13.664898468853455C25.150019230610432,10.759389008831578,22.98639632728226,8.62789526066309,20.26628760436601,7.140962505602648C17.300580009756235,5.519774452637986,13.94567282680173,3.9582876124121062,10.818089336497792,5.239651632111308C7.523191275333266,6.58956406042592,5.647691038123891,9.984879210117038,4.852972196382607,13.455763644978763C4.057486799624546,16.92999596054552,4.380797159035466,20.70785995314179,6.646398514563252,23.45924827484673C8.875408427532845,26.16619926979809,12.49879450144072,26.798939231374696,16,26.99292102960103" fill="#FFF" strokewidth="0"/>
</g>
<g id="SVGRepo_tracerCarrier" stroke-linecap="round" stroke-linejoin="round"/>
<g id="SVGRepo_iconCarrier"> <title>arrow-up-square</title> <desc>Created with Sketch Beta.</desc> <defs> </defs> <g id="Page-1" stroke-width="0.00032" fill="none" fill-rule="evenodd" sketch:type="MSPage"> <g id="Icon-Set-Filled" sketch:type="MSLayerGroup" transform="translate(-518.000000, -985.000000)" fill="#008d85"> <path d="M540.535,1000.535 C540.145,1000.926 539.512,1000.926 539.121,1000.535 L535,996.414 L535,1007 C535,1007.55 534.552,1008 534,1008 C533.447,1008 533,1007.55 533,1007 L533,996.414 L528.879,1000.535 C528.488,1000.926 527.854,1000.926 527.465,1000.535 C527.074,1000.146 527.074,999.512 527.465,999.121 L533.121,993.465 C533.361,993.225 533.689,993.15 534,993.205 C534.311,993.15 534.639,993.225 534.879,993.465 L540.535,999.121 C540.926,999.512 540.926,1000.146 540.535,1000.535 L540.535,1000.535 Z M546,985 L522,985 C519.791,985 518,986.791 518,989 L518,1013 C518,1015.21 519.791,1017 522,1017 L546,1017 C548.209,1017 550,1015.21 550,1013 L550,989 C550,986.791 548.209,985 546,985 L546,985 Z" id="arrow-up-square" sketch:type="MSShapeGroup"> </path> </g> </g> </g>
</svg>